<?xml version="1.0" encoding="utf-8"?>
<!-- Generator: Adobe Illustrator 19.0.0, SVG Export Plug-In . SVG Version: 6.00 Build 0)  -->
<svg version="1.1" id="layer" xmlns="http://www.w3.org/2000/svg" xmlns:xlink="http://www.w3.org/1999/xlink" x="0px" y="0px"
	 viewBox="-153 -46 652 652" style="enable-background:new -153 -46 652 652;" xml:space="preserve">
<style type="text/css">
	.st0{fill-rule:evenodd;clip-rule:evenodd;fill:#209FDA;}
	.st1{fill-rule:evenodd;clip-rule:evenodd;}
</style>
<path class="st0" d="M-90.9,194.4H-59v22.5c-11,2.7-21.7,6.5-31.9,11.5L-90.9,194.4z M314.4,194.4h-31.9v22.5
	c11,2.7,21.7,6.5,31.9,11.5V194.4z"/>
<path class="st1" d="M441.7,349.4v-69c0-20.5-16.7-37.2-37.3-37.2c-20.6,0-37.3,16.7-37.3,37.2c0,20.5,16.7,37.2,37.3,37.2h16v31.8
	h-17.4c-38.2-0.8-68.5-32.4-67.7-70.5c0.8-38.1,32.5-68.3,70.7-67.5c37.6,0.8,67.7,31.5,67.7,69v69H441.7z M260.6,349.4v-69
	c0-12.1-3.2-24-9.3-34.5c-19.1-33-61.5-44.3-94.5-25.2l-2.7,1.6v-81.6h-31.9v208.8H154v-69v-1.8l0,0c0.9-19.9,17.4-35.5,37.3-35.5
	c20.6,0,37.3,16.7,37.2,37.3v69H260.6z M100.8,349.4v-69c0-37.5-30.1-68.2-67.7-69c-38.2-0.8-69.9,29.4-70.7,67.5
	c-0.8,38.1,29.5,69.7,67.7,70.5h17.4v-31.8h-16C11,317.6-5.7,301-5.7,280.4c0-20.5,16.7-37.2,37.3-37.2c20.6,0,37.3,16.6,37.3,37.2
	v69H100.8z M-126.4,420.2c37.5-1,67.4-31.6,67.4-69V236.4c-11.2,3.3-21.9,8-31.9,14v100.8c0,19.8-15.6,36.2-35.5,37.2V420.2z
	 M314.4,349.4v-99c-10-6.1-20.7-10.8-31.9-14v113H314.4z"/>
</svg>
